<svg
          xmlnsXlink="http://www.w3.org/1999/xlink"
          xmlns="http://www.w3.org/2000/svg"
          viewBox="0 0 20 20"
        >
          <path
            fill="#FFFFFF"
            fillRule="evenodd"
            d="M13.5 3.25a1 1 0 1 0 0 2 1 1 0 0 0 0-2Zm-2.386.25a2.501 2.501 0 0 1 4.772 0h1.864a.75.75 0 0 1 0 1.5h-1.864a2.501 2.501 0 0 1-4.771 0H2.25a.75.75 0 0 1 0-1.5h8.864Zm-7 5.75a2.501 2.501 0 0 1 4.772 0h8.864a.75.75 0 0 1 0 1.5H8.886a2.501 2.501 0 0 1-4.772 0H2.25a.75.75 0 0 1 0-1.5h1.864ZM6.5 9a1 1 0 1 0 0 2 1 1 0 0 0 0-2Zm6 5.75a1 1 0 1 0 0 2 1 1 0 0 0 0-2Zm-2.386.25a2.501 2.501 0 0 1 4.772 0h2.864a.75.75 0 0 1 0 1.5h-2.864a2.501 2.501 0 0 1-4.771 0H2.25a.75.75 0 0 1 0-1.5h7.864Z"
            clipRule="evenodd"
          ></path>
        </svg>